<?xml version="1.0" standalone="no"?>
<!DOCTYPE svg PUBLIC "-//W3C//DTD SVG 20010904//EN"
 "http://www.w3.org/TR/2001/REC-SVG-20010904/DTD/svg10.dtd">
<svg version="1.0" xmlns="http://www.w3.org/2000/svg"
 width="360.000000pt" height="360.000000pt" viewBox="0 0 360.000000 360.000000"
 preserveAspectRatio="xMidYMid meet">

<g transform="translate(0.000000,360.000000) scale(0.100000,-0.100000)"
fill="#000000" stroke="none">
<path d="M2549 3420 l-24 -20 40 3 c37 2 54 11 55 30 0 15 -49 6 -71 -13z"/>
<path d="M2508 3391 c0 -3 -2 -10 -2 -16 -1 -5 -7 -20 -14 -32 -11 -20 -10
-23 6 -23 15 0 82 57 82 70 0 7 -70 7 -72 1z"/>
<path d="M2390 3301 c-5 -11 -10 -22 -10 -25 0 -11 49 17 54 30 8 22 -32 17
-44 -5z"/>
<path d="M2262 3183 c-62 -30 -64 -38 -3 -17 30 10 47 12 56 4 9 -7 16 -6 25
5 7 8 21 15 31 15 10 0 21 5 24 10 13 20 -80 9 -133 -17z"/>
<path d="M2153 3150 c-42 -31 -121 -138 -168 -228 -30 -58 -97 -121 -161 -152
-51 -25 -67 -44 -81 -92 l-11 -38 36 30 c20 17 46 30 57 30 12 0 28 12 38 30
17 28 17 30 1 30 -9 0 10 21 46 50 34 27 75 70 91 95 16 25 32 45 36 46 5 0
20 2 35 3 15 1 36 10 48 21 l21 19 -21 8 c-16 6 -31 1 -58 -20 -40 -29 -36
-20 23 49 54 65 76 94 75 102 -1 4 9 17 22 27 36 30 16 23 -29 -10z"/>
<path d="M1973 2844 c-25 -11 -12 -25 20 -22 17 2 32 8 32 13 0 11 -33 17 -52
9z"/>
<path d="M1220 2753 c1 -21 33 -46 86 -67 62 -24 130 -63 178 -103 24 -20 35
-23 80 -17 66 8 78 19 20 19 -25 0 -48 5 -52 10 -8 12 -33 27 -117 70 -33 17
-80 43 -105 57 -52 30 -90 43 -90 31z"/>
<path d="M1808 2673 c-8 -10 -22 -30 -31 -45 -15 -23 -24 -28 -57 -26 -22 1
-43 -2 -47 -5 -3 -4 13 -7 37 -7 23 0 60 -5 80 -11 27 -8 43 -8 56 -1 17 10
15 11 -13 12 -38 0 -43 21 -18 70 18 34 15 38 -7 13z"/>
<path d="M1884 2579 c11 -7 31 -12 44 -13 24 -1 46 -26 23 -26 -6 0 -8 -6 -5
-14 3 -7 -2 -16 -11 -20 -9 -3 -13 -2 -10 4 3 6 -1 7 -10 4 -9 -4 -13 -9 -10
-12 3 -3 -3 -14 -12 -25 -18 -19 -18 -19 12 -5 17 9 35 13 42 11 14 -5 23 9
29 44 7 37 8 37 38 17 15 -9 29 -14 32 -11 10 10 -82 47 -131 53 -42 4 -47 3
-31 -7z"/>
<path d="M1815 2550 c-11 -5 -30 -9 -42 -9 -27 -1 -78 -20 -71 -27 3 -2 17 0
32 5 14 6 44 12 66 13 24 2 40 8 40 16 0 6 -1 12 -2 11 -2 0 -12 -4 -23 -9z"/>
<path d="M1866 2548 c3 -4 15 -8 26 -8 12 0 18 3 14 7 -10 10 -46 11 -40 1z"/>
<path d="M1470 2511 c0 -11 4 -22 9 -25 4 -3 6 6 3 19 -5 30 -12 33 -12 6z"/>
<path d="M1518 2473 c7 -3 16 -2 19 1 4 3 -2 6 -13 5 -11 0 -14 -3 -6 -6z"/>
<path d="M1308 2363 c7 -3 16 -2 19 1 4 3 -2 6 -13 5 -11 0 -14 -3 -6 -6z"/>
<path d="M2822 1580 c0 -14 2 -19 5 -12 2 6 2 18 0 25 -3 6 -5 1 -5 -13z"/>
<path d="M2826 1458 c-3 -51 -6 -106 -6 -123 0 -23 -2 -27 -10 -15 -13 19 -13
8 0 -25 5 -14 6 -24 1 -21 -6 4 -28 -48 -36 -84 0 -3 -6 -15 -13 -27 -7 -13
-8 -23 -3 -23 5 0 13 9 16 21 4 11 9 18 12 15 3 -2 -2 -19 -11 -37 -9 -18 -16
-39 -16 -48 -1 -9 -7 -29 -15 -46 -8 -16 -13 -21 -10 -9 3 12 1 32 -4 45 -8
20 -10 15 -9 -26 1 -65 -16 -109 -40 -100 -14 5 -15 4 -4 -6 6 -7 12 -17 12
-23 0 -5 -3 -6 -7 -3 -7 8 -33 -11 -33 -25 0 -5 5 -6 10 -3 19 11 10 -6 -15
-31 -14 -14 -25 -29 -25 -33 0 -5 -16 -18 -35 -30 -32 -18 -52 -51 -22 -36 6
4 1 -2 -13 -13 -26 -21 -43 -21 -22 0 20 20 13 29 -7 11 -11 -9 -17 -21 -14
-27 4 -6 -1 -5 -10 3 -13 10 -17 11 -17 1 0 -7 -11 -1 -25 14 -14 15 -25 31
-25 37 0 5 -5 9 -11 9 -16 0 -38 31 -39 53 0 10 -7 20 -15 23 -8 4 -15 13 -15
21 0 22 -30 74 -39 68 -11 -6 -21 19 -21 51 0 13 -4 24 -9 24 -5 0 -12 8 -14
18 -4 16 -5 16 -6 0 -1 -19 -21 -26 -21 -8 0 6 -18 10 -40 10 -22 0 -40 -4
-40 -8 0 -12 -68 -34 -81 -27 -6 4 -13 -3 -16 -15 -3 -13 -11 -19 -19 -16 -20
8 -64 -11 -85 -35 -9 -11 -26 -22 -38 -24 -11 -2 -36 -15 -54 -29 -19 -14 -39
-26 -46 -26 -7 0 -19 -7 -27 -15 -9 -8 -24 -15 -35 -15 -12 0 -19 -7 -19 -20
0 -10 -6 -23 -13 -27 -8 -4 -17 -16 -20 -26 -5 -13 -13 -16 -26 -12 -25 8 -46
-26 -29 -43 7 -7 8 -15 3 -19 -4 -5 -10 -2 -12 5 -8 21 -41 14 -45 -10 -2 -17
-10 -23 -27 -23 -14 0 -26 -7 -29 -15 -10 -38 -13 -44 -20 -35 -12 17 -51 35
-57 26 -3 -5 -32 -12 -64 -16 -46 -5 -64 -3 -83 9 -14 9 -28 13 -31 9 -4 -3
-7 -1 -7 5 0 9 -49 26 -67 22 -4 -1 -10 7 -14 17 -7 17 -8 17 -8 1 -1 -19 -21
-26 -21 -7 0 5 -5 7 -10 4 -6 -4 -7 -11 -4 -17 4 -7 2 -8 -5 -4 -6 4 -9 11 -6
15 2 5 -2 17 -11 27 -14 18 -15 18 -9 -6 l7 -25 -17 23 c-9 12 -23 22 -32 22
-9 0 -13 6 -10 14 4 11 1 13 -10 9 -12 -5 -15 -2 -10 10 4 11 1 17 -8 17 -8 0
-21 15 -29 34 -8 19 -27 41 -43 49 -32 18 -84 109 -133 235 -37 96 -54 104
-20 10 33 -90 96 -215 132 -262 18 -23 33 -43 35 -45 2 -2 6 -1 9 2 4 4 1 15
-7 24 -13 16 -12 17 4 4 10 -8 15 -21 12 -30 -8 -19 147 -170 272 -265 93 -70
309 -183 403 -211 41 -12 75 -14 133 -9 61 5 87 3 123 -11 60 -23 89 -16 179
42 133 87 491 414 480 441 -2 7 -1 11 4 7 19 -11 111 129 161 246 53 126 71
211 77 367 6 158 -2 195 -11 50z m-1619 -805 c3 -7 -4 -9 -16 -6 -12 3 -18 9
-15 15 7 11 26 6 31 -9z m400 -15 c-3 -7 -5 -2 -5 12 0 14 2 19 5 13 2 -7 2
-19 0 -25z m-341 -20 c-9 -5 -24 -7 -34 -5 -12 3 -10 5 6 6 13 0 20 5 17 11
-4 6 1 7 11 3 15 -5 15 -7 0 -15z"/>
<path d="M2740 1266 c0 -24 17 -28 23 -6 3 13 0 20 -9 20 -8 0 -14 -6 -14 -14z"/>
<path d="M2735 1177 c-6 -12 -8 -33 -4 -47 7 -25 7 -25 8 3 1 16 6 37 11 48 6
10 7 19 3 19 -4 0 -13 -10 -18 -23z"/>
</g>
</svg>
